<svg xmlns="http://www.w3.org/2000/svg" width="429" height="32.473817015175825" viewBox="0 0 350 26.493790105621304" class="looka-1j8o68f"><defs id="SvgjsDefs5005"><linearGradient id="SvgjsLinearGradient5008"><stop id="SvgjsStop5009" stop-color="#905e26" offset="0"></stop><stop id="SvgjsStop5010" stop-color="#f5ec9b" offset="0.5"></stop><stop id="SvgjsStop5011" stop-color="#905e26" offset="1"></stop></linearGradient></defs><g id="SvgjsG5006" featurekey="A7DQL5-0" transform="matrix(1.6810758113861084,0,0,1.6810758113861084,0.00003466917415510141,-7.1277609648537785)" fill="url(#SvgjsLinearGradient5008)"><path d="M4.4 15.219999999999999 c0.85334 -0.48 1.5067 -1.1567 1.96 -2.03 s0.68 -1.8633 0.68 -2.97 l0 -0.28 c0 -1.64 -0.49 -3 -1.47 -4.08 s-2.3766 -1.62 -4.19 -1.62 l-1.38 0 l0 6.34 c0.22666 0.01334 0.45332 0.02 0.67998 0.02 l0 -5.72 l0.66 0 c1.64 0 2.88 0.47666 3.72 1.43 s1.26 2.1766 1.26 3.67 l0 0.22 c0 1.48 -0.42 2.6934 -1.26 3.64 s-2.08 1.42 -3.72 1.42 l-0.66 0 l0 0 l-0.68 0 l0 0.64 c0.4 0.01334 0.66666 0.02 0.8 0.02 l0.58 0 c0.92 0 1.7267 -0.14 2.42 -0.42 l2.48 4.5 l0.8 0 z M9.68 4.24 l0 15.76 l0.52 0 l0 -15.76 l-0.52 0 z M14.600000000000001 20 c0.58666 0 1.1334 -0.06664 1.6401 -0.19998 l-0.16 -0.6 c-0.45334 0.12 -0.94668 0.18 -1.48 0.18 l-1.18 0 l0 -14.46 l1.18 0 c0.86666 0 1.6633 0.17 2.39 0.51 s1.3533 0.81 1.88 1.41 s0.94 1.3233 1.24 2.17 s0.45 1.7767 0.45 2.79 l0 0.42 c0 0.74666 -0.1 1.48 -0.3 2.2 s-0.47334 1.3833 -0.82 1.99 s-0.75332 1.1367 -1.22 1.59 s-0.96 0.78 -1.48 0.98 l0.24 0.58 c0.58666 -0.24 1.1333 -0.60334 1.64 -1.09 s0.95 -1.0567 1.33 -1.71 s0.68 -1.37 0.9 -2.15 s0.33 -1.5767 0.33 -2.39 l0 -0.42 c0 -1.0933 -0.16666 -2.0966 -0.5 -3.01 s-0.79334 -1.7033 -1.38 -2.37 s-1.28 -1.1867 -2.08 -1.56 s-1.6733 -0.56 -2.62 -0.56 l-1.8 0 l0 15.7 l1.8 0 z M30.86 11.02 l1.78 1.66 c0.56 0.52 1 1.0767 1.32 1.67 s0.48 1.19 0.48 1.79 l0 0.26 c0.01334 0.42666 -0.04 0.80666 -0.16 1.14 l0.74 0 c0.10666 -0.36 0.15332 -0.73334 0.13998 -1.12 l0 -0.28 c0 -0.72 -0.18334 -1.4067 -0.55 -2.06 s-0.87666 -1.2933 -1.53 -1.92 l-1.72 -1.62 c-0.54666 -0.52 -0.99666 -1.0067 -1.35 -1.46 s-0.53 -1.02 -0.53 -1.7 l0 -0.12 c0 -0.70666 0.19666 -1.2767 0.59 -1.71 s0.94334 -0.65 1.65 -0.65 c0.50666 0 0.92 0.07666 1.24 0.23 s0.64666 0.38334 0.98 0.69 l0.46 -0.52 c-0.37334 -0.34666 -0.75668 -0.60666 -1.15 -0.78 s-0.90334 -0.26 -1.53 -0.26 c-0.81334 0 -1.5033 0.26334 -2.07 0.79 s-0.85 1.2567 -0.85 2.19 l0 0.16 c0 0.76 0.19 1.41 0.57 1.95 s0.87666 1.0967 1.49 1.67 z M34.74 18.3 l-0.82002 0 c-0.46666 0.68 -1.2133 1.0267 -2.24 1.04 c-0.34666 0 -0.66 -0.04 -0.94 -0.12 l0 0.7 c0.28 0.05334 0.59334 0.08 0.94 0.08 c0.72 0 1.34 -0.14666 1.86 -0.44 s0.92 -0.71334 1.2 -1.26 z M44.760000000000005 20 c2.2134 0 4.1 -0.78 5.66 -2.34 c0.77334 -0.76 1.3567 -1.58 1.75 -2.46 s0.59 -1.88 0.59 -3 c0 -2.2266 -0.78 -4.1066 -2.34 -5.64 c-1.56 -1.52 -3.4866 -2.2866 -5.78 -2.3 c-1.4133 0.01334 -2.74 0.36668 -3.98 1.06 c-1.2133 0.70666 -2.18 1.6867 -2.9 2.94 l0.58 0.32 c0.65334 -1.16 1.54 -2.06 2.66 -2.7 c1.1067 -0.64 2.32 -0.96666 3.64 -0.98 c2.1334 0.01334 3.9066 0.72668 5.32 2.14 c1.4133 1.3867 2.1266 3.1066 2.14 5.16 c0 1.0267 -0.18 1.9433 -0.54 2.75 s-0.88666 1.5633 -1.58 2.27 c-1.4267 1.4267 -3.1666 2.14 -5.22 2.14 c-1.28 0 -2.44 -0.27334 -3.48 -0.82 l-0.3 0.58 c1.1333 0.58666 2.3934 0.88 3.78 0.88 z M55.900000000000006 20 l0 -12.34 l0.8 0 l0 -0.56 l-1.34 0 l0 12.9 l0.54 0 z M60.7 4.800000000000001 l0 -0.56 l-5.34 0 l0 0.56 l5.34 0 z M69.16000000000001 4.5 l-0.000019531 -0.26 l-5.86 0 l0 0.64 l3.38 0 l0 15.12 l0.7 0 l0 -15.12 l1.8 0 c-0.02666 -0.21334 -0.03332 -0.34 -0.01998 -0.38 z M69.68 4.24 l0 0.64 l1.1 0 l0 -0.64 l-1.1 0 z M83.34 4.24 l-2.04 12.62 l-2.44 -12.62 l-0.36 0 l-1.74 10.02 c0 0.02666 0.0033398 0.12 0.01 0.28 s0.02 0.34 0.04 0.54 s0.04 0.39 0.06 0.57 s0.03666 0.29 0.05 0.33 c0.36 -1.92 0.65 -3.46 0.87 -4.62 s0.42334 -2.2334 0.61 -3.22 s0.28 -1.5 0.28 -1.54 c0 0.05334 0.13334 0.78334 0.4 2.19 s0.56 2.94 0.88 4.6 s0.74666 3.8634 1.28 6.61 l0.12 0 l2.62 -15.76 l-0.64 0 z M73.98 4.24 l-0.6 0 l2.62 15.76 l0.1 0 l0.3 -1.1 z M91.92000000000002 6.140000000000001 c0 0.08 0.23666 0.84334 0.71 2.29 s0.99 3.03 1.55 4.75 s1.3133 3.9934 2.26 6.82 l0.86 0 l-5.3 -15.76 l-0.16 0 l-5.26 15.76 l0.82 0 z M91.56000000000002 15.52 l-0.72 0 l1.2 4.48 l0.72 0 z M104.30000000000001 15.219999999999999 c0.85334 -0.48 1.5067 -1.1567 1.96 -2.03 s0.68 -1.8633 0.68 -2.97 l0 -0.28 c0 -1.64 -0.49 -3 -1.47 -4.08 s-2.3766 -1.62 -4.19 -1.62 l-1.38 0 l0 6.34 c0.22666 0.01334 0.45332 0.02 0.67998 0.02 l0 -5.72 l0.66 0 c1.64 0 2.88 0.47666 3.72 1.43 s1.26 2.1766 1.26 3.67 l0 0.22 c0 1.48 -0.42 2.6934 -1.26 3.64 s-2.08 1.42 -3.72 1.42 l-0.66 0 l0 0 l-0.68 0 l0 0.64 c0.4 0.01334 0.66666 0.02 0.8 0.02 l0.58 0 c0.92 0 1.7267 -0.14 2.42 -0.42 l2.48 4.5 l0.8 0 z M110.14000000000001 14.16 l0 -9.36 l4.8 0 l0 -0.56 l-5.36 0 l0 9.92 l0.56 0 z M115.14000000000001 20 l0 -0.54 l-5 0 l0 -4.14 l0.8 0 l0 -0.54 l-1.36 0 l0 5.22 l5.56 0 z M124.82000000000001 11.02 l1.78 1.66 c0.56 0.52 1 1.0767 1.32 1.67 s0.48 1.19 0.48 1.79 l0 0.26 c0.01334 0.42666 -0.04 0.80666 -0.16 1.14 l0.74 0 c0.10666 -0.36 0.15332 -0.73334 0.13998 -1.12 l0 -0.28 c0 -0.72 -0.18334 -1.4067 -0.55 -2.06 s-0.87666 -1.2933 -1.53 -1.92 l-1.72 -1.62 c-0.54666 -0.52 -0.99666 -1.0067 -1.35 -1.46 s-0.53 -1.02 -0.53 -1.7 l0 -0.12 c0 -0.70666 0.19666 -1.2767 0.59 -1.71 s0.94334 -0.65 1.65 -0.65 c0.50666 0 0.92 0.07666 1.24 0.23 s0.64666 0.38334 0.98 0.69 l0.46 -0.52 c-0.37334 -0.34666 -0.75668 -0.60666 -1.15 -0.78 s-0.90334 -0.26 -1.53 -0.26 c-0.81334 0 -1.5033 0.26334 -2.07 0.79 s-0.85 1.2567 -0.85 2.19 l0 0.16 c0 0.76 0.19 1.41 0.57 1.95 s0.87666 1.0967 1.49 1.67 z M128.70000000000002 18.3 l-0.82002 0 c-0.46666 0.68 -1.2133 1.0267 -2.24 1.04 c-0.34666 0 -0.66 -0.04 -0.94 -0.12 l0 0.7 c0.28 0.05334 0.59334 0.08 0.94 0.08 c0.72 0 1.34 -0.14666 1.86 -0.44 s0.92 -0.71334 1.2 -1.26 z M138.72 20 c2.2134 0 4.1 -0.78 5.66 -2.34 c0.77334 -0.76 1.3567 -1.58 1.75 -2.46 s0.59 -1.88 0.59 -3 c0 -2.2266 -0.78 -4.1066 -2.34 -5.64 c-1.56 -1.52 -3.4866 -2.2866 -5.78 -2.3 c-1.4133 0.01334 -2.74 0.36668 -3.98 1.06 c-1.2133 0.70666 -2.18 1.6867 -2.9 2.94 l0.58 0.32 c0.65334 -1.16 1.54 -2.06 2.66 -2.7 c1.1067 -0.64 2.32 -0.96666 3.64 -0.98 c2.1334 0.01334 3.9066 0.72668 5.32 2.14 c1.4133 1.3867 2.1266 3.1066 2.14 5.16 c0 1.0267 -0.18 1.9433 -0.54 2.75 s-0.88666 1.5633 -1.58 2.27 c-1.4267 1.4267 -3.1666 2.14 -5.22 2.14 c-1.28 0 -2.44 -0.27334 -3.48 -0.82 l-0.3 0.58 c1.1333 0.58666 2.3934 0.88 3.78 0.88 z M149.98 16.06 l0 -11.82 l-0.66 0 l0 11.82 l0.66 0 z M155.35999999999999 20 l0 -0.68 l-5.38 0 l0 -1.96 l-0.66 0 l0 2.64 l6.04 0 z M166.7 4.26 l0 10.64 c0 1.4 -0.37 2.48 -1.11 3.24 s-1.6233 1.1733 -2.65 1.24 l0 0.25 l0 0.07 l0 0.3 c1.28 -0.08 2.3066 -0.55334 3.08 -1.42 s1.16 -2.0934 1.16 -3.68 l0 -10.64 l-0.48 0 z M162.2 19.39998 c-1.04 -0.08 -1.9067 -0.5 -2.6 -1.26 s-1.04 -1.84 -1.04 -3.24 l0 -10.64 l-0.6 0 l0 10.64 c0 1.6 0.38334 2.83 1.15 3.69 s1.7967 1.33 3.09 1.41 l0 -0.29 l0 -0.31 z M175.64 4.5 l-0.000019531 -0.26 l-5.86 0 l0 0.64 l3.38 0 l0 15.12 l0.7 0 l0 -15.12 l1.8 0 c-0.02666 -0.21334 -0.03332 -0.34 -0.01998 -0.38 z M176.15999999999997 4.24 l0 0.64 l1.1 0 l0 -0.64 l-1.1 0 z M179.85999999999999 4.24 l0 15.76 l0.52 0 l0 -15.76 l-0.52 0 z M189.98 20 c2.2134 0 4.1 -0.78 5.66 -2.34 c0.77334 -0.76 1.3567 -1.58 1.75 -2.46 s0.59 -1.88 0.59 -3 c0 -2.2266 -0.78 -4.1066 -2.34 -5.64 c-1.56 -1.52 -3.4866 -2.2866 -5.78 -2.3 c-1.4133 0.01334 -2.74 0.36668 -3.98 1.06 c-1.2133 0.70666 -2.18 1.6867 -2.9 2.94 l0.58 0.32 c0.65334 -1.16 1.54 -2.06 2.66 -2.7 c1.1067 -0.64 2.32 -0.96666 3.64 -0.98 c2.1334 0.01334 3.9066 0.72668 5.32 2.14 c1.4133 1.3867 2.1266 3.1066 2.14 5.16 c0 1.0267 -0.18 1.9433 -0.54 2.75 s-0.88666 1.5633 -1.58 2.27 c-1.4267 1.4267 -3.1666 2.14 -5.22 2.14 c-1.28 0 -2.44 -0.27334 -3.48 -0.82 l-0.3 0.58 c1.1333 0.58666 2.3934 0.88 3.78 0.88 z M207.55999999999997 4.58 l-0.000019531 11.56 c0 0.36 0.0066602 0.76 0.02 1.2 s0.02 0.66666 0.02 0.68 c-0.02666 -0.04 -0.12332 -0.25666 -0.28998 -0.65 s-0.33 -0.74334 -0.49 -1.05 l-0.28 -0.54 l-0.72 0 l2.2 4.22 l0.18 0 l0 -15.42 l-0.64 0 z M201.94 7.9399999999999995 l0.27998 0.54 l0.72 0 l-2.22 -4.24 l-0.14 0 l0 15.46 l0.62 0 l0 -11.6 c0 -0.33334 -0.0066602 -0.72334 -0.02 -1.17 s-0.02 -0.67666 -0.02 -0.69 c0.01334 0.04 0.10668 0.26 0.28002 0.66 s0.34 0.74666 0.5 1.04 z"></path></g></svg>